%TF.GenerationSoftware,KiCad,Pcbnew,(5.1.9)-1*%
%TF.CreationDate,2022-08-01T09:46:19-03:00*%
%TF.ProjectId,PonteH,506f6e74-6548-42e6-9b69-6361645f7063,rev?*%
%TF.SameCoordinates,Original*%
%TF.FileFunction,Soldermask,Top*%
%TF.FilePolarity,Negative*%
%FSLAX46Y46*%
G04 Gerber Fmt 4.6, Leading zero omitted, Abs format (unit mm)*
G04 Created by KiCad (PCBNEW (5.1.9)-1) date 2022-08-01 09:46:19*
%MOMM*%
%LPD*%
G01*
G04 APERTURE LIST*
%ADD10R,0.900000X1.200000*%
%ADD11R,1.200000X0.900000*%
%ADD12O,1.600000X1.600000*%
%ADD13R,1.600000X1.600000*%
%ADD14C,3.000000*%
%ADD15R,3.000000X3.000000*%
%ADD16R,1.800000X4.400000*%
%ADD17O,1.800000X4.000000*%
%ADD18O,4.000000X1.800000*%
%ADD19O,1.905000X2.000000*%
%ADD20R,1.905000X2.000000*%
%ADD21O,2.000000X1.905000*%
%ADD22R,2.000000X1.905000*%
%ADD23O,1.600000X2.400000*%
%ADD24R,1.600000X2.400000*%
%ADD25O,2.400000X1.600000*%
%ADD26R,2.400000X1.600000*%
%ADD27C,1.700000*%
G04 APERTURE END LIST*
%TO.C,R18*%
G36*
G01*
X63340000Y-82790000D02*
X63660000Y-82790000D01*
G75*
G02*
X63820000Y-82950000I0J-160000D01*
G01*
X63820000Y-83345000D01*
G75*
G02*
X63660000Y-83505000I-160000J0D01*
G01*
X63340000Y-83505000D01*
G75*
G02*
X63180000Y-83345000I0J160000D01*
G01*
X63180000Y-82950000D01*
G75*
G02*
X63340000Y-82790000I160000J0D01*
G01*
G37*
G36*
G01*
X63340000Y-81595000D02*
X63660000Y-81595000D01*
G75*
G02*
X63820000Y-81755000I0J-160000D01*
G01*
X63820000Y-82150000D01*
G75*
G02*
X63660000Y-82310000I-160000J0D01*
G01*
X63340000Y-82310000D01*
G75*
G02*
X63180000Y-82150000I0J160000D01*
G01*
X63180000Y-81755000D01*
G75*
G02*
X63340000Y-81595000I160000J0D01*
G01*
G37*
%TD*%
%TO.C,R6*%
G36*
G01*
X101195500Y-102075000D02*
X101195500Y-102395000D01*
G75*
G02*
X101035500Y-102555000I-160000J0D01*
G01*
X100640500Y-102555000D01*
G75*
G02*
X100480500Y-102395000I0J160000D01*
G01*
X100480500Y-102075000D01*
G75*
G02*
X100640500Y-101915000I160000J0D01*
G01*
X101035500Y-101915000D01*
G75*
G02*
X101195500Y-102075000I0J-160000D01*
G01*
G37*
G36*
G01*
X102390500Y-102075000D02*
X102390500Y-102395000D01*
G75*
G02*
X102230500Y-102555000I-160000J0D01*
G01*
X101835500Y-102555000D01*
G75*
G02*
X101675500Y-102395000I0J160000D01*
G01*
X101675500Y-102075000D01*
G75*
G02*
X101835500Y-101915000I160000J0D01*
G01*
X102230500Y-101915000D01*
G75*
G02*
X102390500Y-102075000I0J-160000D01*
G01*
G37*
%TD*%
%TO.C,R12*%
G36*
G01*
X106477500Y-83660000D02*
X106477500Y-83980000D01*
G75*
G02*
X106317500Y-84140000I-160000J0D01*
G01*
X105922500Y-84140000D01*
G75*
G02*
X105762500Y-83980000I0J160000D01*
G01*
X105762500Y-83660000D01*
G75*
G02*
X105922500Y-83500000I160000J0D01*
G01*
X106317500Y-83500000D01*
G75*
G02*
X106477500Y-83660000I0J-160000D01*
G01*
G37*
G36*
G01*
X107672500Y-83660000D02*
X107672500Y-83980000D01*
G75*
G02*
X107512500Y-84140000I-160000J0D01*
G01*
X107117500Y-84140000D01*
G75*
G02*
X106957500Y-83980000I0J160000D01*
G01*
X106957500Y-83660000D01*
G75*
G02*
X107117500Y-83500000I160000J0D01*
G01*
X107512500Y-83500000D01*
G75*
G02*
X107672500Y-83660000I0J-160000D01*
G01*
G37*
%TD*%
%TO.C,R13*%
G36*
G01*
X107155000Y-79652500D02*
X107475000Y-79652500D01*
G75*
G02*
X107635000Y-79812500I0J-160000D01*
G01*
X107635000Y-80207500D01*
G75*
G02*
X107475000Y-80367500I-160000J0D01*
G01*
X107155000Y-80367500D01*
G75*
G02*
X106995000Y-80207500I0J160000D01*
G01*
X106995000Y-79812500D01*
G75*
G02*
X107155000Y-79652500I160000J0D01*
G01*
G37*
G36*
G01*
X107155000Y-78457500D02*
X107475000Y-78457500D01*
G75*
G02*
X107635000Y-78617500I0J-160000D01*
G01*
X107635000Y-79012500D01*
G75*
G02*
X107475000Y-79172500I-160000J0D01*
G01*
X107155000Y-79172500D01*
G75*
G02*
X106995000Y-79012500I0J160000D01*
G01*
X106995000Y-78617500D01*
G75*
G02*
X107155000Y-78457500I160000J0D01*
G01*
G37*
%TD*%
%TO.C,R7*%
G36*
G01*
X107747500Y-103345000D02*
X107747500Y-103665000D01*
G75*
G02*
X107587500Y-103825000I-160000J0D01*
G01*
X107192500Y-103825000D01*
G75*
G02*
X107032500Y-103665000I0J160000D01*
G01*
X107032500Y-103345000D01*
G75*
G02*
X107192500Y-103185000I160000J0D01*
G01*
X107587500Y-103185000D01*
G75*
G02*
X107747500Y-103345000I0J-160000D01*
G01*
G37*
G36*
G01*
X108942500Y-103345000D02*
X108942500Y-103665000D01*
G75*
G02*
X108782500Y-103825000I-160000J0D01*
G01*
X108387500Y-103825000D01*
G75*
G02*
X108227500Y-103665000I0J160000D01*
G01*
X108227500Y-103345000D01*
G75*
G02*
X108387500Y-103185000I160000J0D01*
G01*
X108782500Y-103185000D01*
G75*
G02*
X108942500Y-103345000I0J-160000D01*
G01*
G37*
%TD*%
%TO.C,R1*%
G36*
G01*
X81167000Y-101440000D02*
X81167000Y-101760000D01*
G75*
G02*
X81007000Y-101920000I-160000J0D01*
G01*
X80612000Y-101920000D01*
G75*
G02*
X80452000Y-101760000I0J160000D01*
G01*
X80452000Y-101440000D01*
G75*
G02*
X80612000Y-101280000I160000J0D01*
G01*
X81007000Y-101280000D01*
G75*
G02*
X81167000Y-101440000I0J-160000D01*
G01*
G37*
G36*
G01*
X82362000Y-101440000D02*
X82362000Y-101760000D01*
G75*
G02*
X82202000Y-101920000I-160000J0D01*
G01*
X81807000Y-101920000D01*
G75*
G02*
X81647000Y-101760000I0J160000D01*
G01*
X81647000Y-101440000D01*
G75*
G02*
X81807000Y-101280000I160000J0D01*
G01*
X82202000Y-101280000D01*
G75*
G02*
X82362000Y-101440000I0J-160000D01*
G01*
G37*
%TD*%
%TO.C,R17*%
G36*
G01*
X82710000Y-64784000D02*
X82390000Y-64784000D01*
G75*
G02*
X82230000Y-64624000I0J160000D01*
G01*
X82230000Y-64229000D01*
G75*
G02*
X82390000Y-64069000I160000J0D01*
G01*
X82710000Y-64069000D01*
G75*
G02*
X82870000Y-64229000I0J-160000D01*
G01*
X82870000Y-64624000D01*
G75*
G02*
X82710000Y-64784000I-160000J0D01*
G01*
G37*
G36*
G01*
X82710000Y-65979000D02*
X82390000Y-65979000D01*
G75*
G02*
X82230000Y-65819000I0J160000D01*
G01*
X82230000Y-65424000D01*
G75*
G02*
X82390000Y-65264000I160000J0D01*
G01*
X82710000Y-65264000D01*
G75*
G02*
X82870000Y-65424000I0J-160000D01*
G01*
X82870000Y-65819000D01*
G75*
G02*
X82710000Y-65979000I-160000J0D01*
G01*
G37*
%TD*%
%TO.C,R16*%
G36*
G01*
X71915000Y-64821500D02*
X71595000Y-64821500D01*
G75*
G02*
X71435000Y-64661500I0J160000D01*
G01*
X71435000Y-64266500D01*
G75*
G02*
X71595000Y-64106500I160000J0D01*
G01*
X71915000Y-64106500D01*
G75*
G02*
X72075000Y-64266500I0J-160000D01*
G01*
X72075000Y-64661500D01*
G75*
G02*
X71915000Y-64821500I-160000J0D01*
G01*
G37*
G36*
G01*
X71915000Y-66016500D02*
X71595000Y-66016500D01*
G75*
G02*
X71435000Y-65856500I0J160000D01*
G01*
X71435000Y-65461500D01*
G75*
G02*
X71595000Y-65301500I160000J0D01*
G01*
X71915000Y-65301500D01*
G75*
G02*
X72075000Y-65461500I0J-160000D01*
G01*
X72075000Y-65856500D01*
G75*
G02*
X71915000Y-66016500I-160000J0D01*
G01*
G37*
%TD*%
%TO.C,R15*%
G36*
G01*
X103980000Y-65264000D02*
X104300000Y-65264000D01*
G75*
G02*
X104460000Y-65424000I0J-160000D01*
G01*
X104460000Y-65819000D01*
G75*
G02*
X104300000Y-65979000I-160000J0D01*
G01*
X103980000Y-65979000D01*
G75*
G02*
X103820000Y-65819000I0J160000D01*
G01*
X103820000Y-65424000D01*
G75*
G02*
X103980000Y-65264000I160000J0D01*
G01*
G37*
G36*
G01*
X103980000Y-64069000D02*
X104300000Y-64069000D01*
G75*
G02*
X104460000Y-64229000I0J-160000D01*
G01*
X104460000Y-64624000D01*
G75*
G02*
X104300000Y-64784000I-160000J0D01*
G01*
X103980000Y-64784000D01*
G75*
G02*
X103820000Y-64624000I0J160000D01*
G01*
X103820000Y-64229000D01*
G75*
G02*
X103980000Y-64069000I160000J0D01*
G01*
G37*
%TD*%
%TO.C,R14*%
G36*
G01*
X93185000Y-65607500D02*
X93505000Y-65607500D01*
G75*
G02*
X93665000Y-65767500I0J-160000D01*
G01*
X93665000Y-66162500D01*
G75*
G02*
X93505000Y-66322500I-160000J0D01*
G01*
X93185000Y-66322500D01*
G75*
G02*
X93025000Y-66162500I0J160000D01*
G01*
X93025000Y-65767500D01*
G75*
G02*
X93185000Y-65607500I160000J0D01*
G01*
G37*
G36*
G01*
X93185000Y-64412500D02*
X93505000Y-64412500D01*
G75*
G02*
X93665000Y-64572500I0J-160000D01*
G01*
X93665000Y-64967500D01*
G75*
G02*
X93505000Y-65127500I-160000J0D01*
G01*
X93185000Y-65127500D01*
G75*
G02*
X93025000Y-64967500I0J160000D01*
G01*
X93025000Y-64572500D01*
G75*
G02*
X93185000Y-64412500I160000J0D01*
G01*
G37*
%TD*%
%TO.C,R11*%
G36*
G01*
X122795000Y-97696000D02*
X122795000Y-97376000D01*
G75*
G02*
X122955000Y-97216000I160000J0D01*
G01*
X123350000Y-97216000D01*
G75*
G02*
X123510000Y-97376000I0J-160000D01*
G01*
X123510000Y-97696000D01*
G75*
G02*
X123350000Y-97856000I-160000J0D01*
G01*
X122955000Y-97856000D01*
G75*
G02*
X122795000Y-97696000I0J160000D01*
G01*
G37*
G36*
G01*
X121600000Y-97696000D02*
X121600000Y-97376000D01*
G75*
G02*
X121760000Y-97216000I160000J0D01*
G01*
X122155000Y-97216000D01*
G75*
G02*
X122315000Y-97376000I0J-160000D01*
G01*
X122315000Y-97696000D01*
G75*
G02*
X122155000Y-97856000I-160000J0D01*
G01*
X121760000Y-97856000D01*
G75*
G02*
X121600000Y-97696000I0J160000D01*
G01*
G37*
%TD*%
%TO.C,R10*%
G36*
G01*
X122705500Y-86139000D02*
X122705500Y-85819000D01*
G75*
G02*
X122865500Y-85659000I160000J0D01*
G01*
X123260500Y-85659000D01*
G75*
G02*
X123420500Y-85819000I0J-160000D01*
G01*
X123420500Y-86139000D01*
G75*
G02*
X123260500Y-86299000I-160000J0D01*
G01*
X122865500Y-86299000D01*
G75*
G02*
X122705500Y-86139000I0J160000D01*
G01*
G37*
G36*
G01*
X121510500Y-86139000D02*
X121510500Y-85819000D01*
G75*
G02*
X121670500Y-85659000I160000J0D01*
G01*
X122065500Y-85659000D01*
G75*
G02*
X122225500Y-85819000I0J-160000D01*
G01*
X122225500Y-86139000D01*
G75*
G02*
X122065500Y-86299000I-160000J0D01*
G01*
X121670500Y-86299000D01*
G75*
G02*
X121510500Y-86139000I0J160000D01*
G01*
G37*
%TD*%
%TO.C,R9*%
G36*
G01*
X122352500Y-117950000D02*
X122352500Y-118270000D01*
G75*
G02*
X122192500Y-118430000I-160000J0D01*
G01*
X121797500Y-118430000D01*
G75*
G02*
X121637500Y-118270000I0J160000D01*
G01*
X121637500Y-117950000D01*
G75*
G02*
X121797500Y-117790000I160000J0D01*
G01*
X122192500Y-117790000D01*
G75*
G02*
X122352500Y-117950000I0J-160000D01*
G01*
G37*
G36*
G01*
X123547500Y-117950000D02*
X123547500Y-118270000D01*
G75*
G02*
X123387500Y-118430000I-160000J0D01*
G01*
X122992500Y-118430000D01*
G75*
G02*
X122832500Y-118270000I0J160000D01*
G01*
X122832500Y-117950000D01*
G75*
G02*
X122992500Y-117790000I160000J0D01*
G01*
X123387500Y-117790000D01*
G75*
G02*
X123547500Y-117950000I0J-160000D01*
G01*
G37*
%TD*%
%TO.C,R8*%
G36*
G01*
X122315000Y-107790000D02*
X122315000Y-108110000D01*
G75*
G02*
X122155000Y-108270000I-160000J0D01*
G01*
X121760000Y-108270000D01*
G75*
G02*
X121600000Y-108110000I0J160000D01*
G01*
X121600000Y-107790000D01*
G75*
G02*
X121760000Y-107630000I160000J0D01*
G01*
X122155000Y-107630000D01*
G75*
G02*
X122315000Y-107790000I0J-160000D01*
G01*
G37*
G36*
G01*
X123510000Y-107790000D02*
X123510000Y-108110000D01*
G75*
G02*
X123350000Y-108270000I-160000J0D01*
G01*
X122955000Y-108270000D01*
G75*
G02*
X122795000Y-108110000I0J160000D01*
G01*
X122795000Y-107790000D01*
G75*
G02*
X122955000Y-107630000I160000J0D01*
G01*
X123350000Y-107630000D01*
G75*
G02*
X123510000Y-107790000I0J-160000D01*
G01*
G37*
%TD*%
%TO.C,R5*%
G36*
G01*
X88867000Y-119911500D02*
X89187000Y-119911500D01*
G75*
G02*
X89347000Y-120071500I0J-160000D01*
G01*
X89347000Y-120466500D01*
G75*
G02*
X89187000Y-120626500I-160000J0D01*
G01*
X88867000Y-120626500D01*
G75*
G02*
X88707000Y-120466500I0J160000D01*
G01*
X88707000Y-120071500D01*
G75*
G02*
X88867000Y-119911500I160000J0D01*
G01*
G37*
G36*
G01*
X88867000Y-118716500D02*
X89187000Y-118716500D01*
G75*
G02*
X89347000Y-118876500I0J-160000D01*
G01*
X89347000Y-119271500D01*
G75*
G02*
X89187000Y-119431500I-160000J0D01*
G01*
X88867000Y-119431500D01*
G75*
G02*
X88707000Y-119271500I0J160000D01*
G01*
X88707000Y-118876500D01*
G75*
G02*
X88867000Y-118716500I160000J0D01*
G01*
G37*
%TD*%
%TO.C,R4*%
G36*
G01*
X99408000Y-119963500D02*
X99728000Y-119963500D01*
G75*
G02*
X99888000Y-120123500I0J-160000D01*
G01*
X99888000Y-120518500D01*
G75*
G02*
X99728000Y-120678500I-160000J0D01*
G01*
X99408000Y-120678500D01*
G75*
G02*
X99248000Y-120518500I0J160000D01*
G01*
X99248000Y-120123500D01*
G75*
G02*
X99408000Y-119963500I160000J0D01*
G01*
G37*
G36*
G01*
X99408000Y-118768500D02*
X99728000Y-118768500D01*
G75*
G02*
X99888000Y-118928500I0J-160000D01*
G01*
X99888000Y-119323500D01*
G75*
G02*
X99728000Y-119483500I-160000J0D01*
G01*
X99408000Y-119483500D01*
G75*
G02*
X99248000Y-119323500I0J160000D01*
G01*
X99248000Y-118928500D01*
G75*
G02*
X99408000Y-118768500I160000J0D01*
G01*
G37*
%TD*%
%TO.C,R3*%
G36*
G01*
X66835000Y-119177500D02*
X66515000Y-119177500D01*
G75*
G02*
X66355000Y-119017500I0J160000D01*
G01*
X66355000Y-118622500D01*
G75*
G02*
X66515000Y-118462500I160000J0D01*
G01*
X66835000Y-118462500D01*
G75*
G02*
X66995000Y-118622500I0J-160000D01*
G01*
X66995000Y-119017500D01*
G75*
G02*
X66835000Y-119177500I-160000J0D01*
G01*
G37*
G36*
G01*
X66835000Y-120372500D02*
X66515000Y-120372500D01*
G75*
G02*
X66355000Y-120212500I0J160000D01*
G01*
X66355000Y-119817500D01*
G75*
G02*
X66515000Y-119657500I160000J0D01*
G01*
X66835000Y-119657500D01*
G75*
G02*
X66995000Y-119817500I0J-160000D01*
G01*
X66995000Y-120212500D01*
G75*
G02*
X66835000Y-120372500I-160000J0D01*
G01*
G37*
%TD*%
%TO.C,R2*%
G36*
G01*
X76995000Y-119177500D02*
X76675000Y-119177500D01*
G75*
G02*
X76515000Y-119017500I0J160000D01*
G01*
X76515000Y-118622500D01*
G75*
G02*
X76675000Y-118462500I160000J0D01*
G01*
X76995000Y-118462500D01*
G75*
G02*
X77155000Y-118622500I0J-160000D01*
G01*
X77155000Y-119017500D01*
G75*
G02*
X76995000Y-119177500I-160000J0D01*
G01*
G37*
G36*
G01*
X76995000Y-120372500D02*
X76675000Y-120372500D01*
G75*
G02*
X76515000Y-120212500I0J160000D01*
G01*
X76515000Y-119817500D01*
G75*
G02*
X76675000Y-119657500I160000J0D01*
G01*
X76995000Y-119657500D01*
G75*
G02*
X77155000Y-119817500I0J-160000D01*
G01*
X77155000Y-120212500D01*
G75*
G02*
X76995000Y-120372500I-160000J0D01*
G01*
G37*
%TD*%
D10*
%TO.C,D12*%
X63755000Y-77470000D03*
X67055000Y-77470000D03*
%TD*%
%TO.C,D11*%
X67055000Y-74930000D03*
X63755000Y-74930000D03*
%TD*%
%TO.C,D10*%
X110870000Y-71755000D03*
X107570000Y-71755000D03*
%TD*%
%TO.C,D9*%
X107570000Y-74295000D03*
X110870000Y-74295000D03*
%TD*%
D11*
%TO.C,D8*%
X111760000Y-84075000D03*
X111760000Y-87375000D03*
%TD*%
%TO.C,D7*%
X114300000Y-87375000D03*
X114300000Y-84075000D03*
%TD*%
%TO.C,D6*%
X115570000Y-106425000D03*
X115570000Y-103125000D03*
%TD*%
%TO.C,D5*%
X113030000Y-103380000D03*
X113030000Y-106680000D03*
%TD*%
D10*
%TO.C,D4*%
X101345000Y-104775000D03*
X98045000Y-104775000D03*
%TD*%
%TO.C,D3*%
X98045000Y-107315000D03*
X101345000Y-107315000D03*
%TD*%
%TO.C,D2*%
X78360000Y-107950000D03*
X81660000Y-107950000D03*
%TD*%
%TO.C,D1*%
X81660000Y-105410000D03*
X78360000Y-105410000D03*
%TD*%
%TO.C,C12*%
G36*
G01*
X63345000Y-80210000D02*
X63655000Y-80210000D01*
G75*
G02*
X63810000Y-80365000I0J-155000D01*
G01*
X63810000Y-80790000D01*
G75*
G02*
X63655000Y-80945000I-155000J0D01*
G01*
X63345000Y-80945000D01*
G75*
G02*
X63190000Y-80790000I0J155000D01*
G01*
X63190000Y-80365000D01*
G75*
G02*
X63345000Y-80210000I155000J0D01*
G01*
G37*
G36*
G01*
X63345000Y-79075000D02*
X63655000Y-79075000D01*
G75*
G02*
X63810000Y-79230000I0J-155000D01*
G01*
X63810000Y-79655000D01*
G75*
G02*
X63655000Y-79810000I-155000J0D01*
G01*
X63345000Y-79810000D01*
G75*
G02*
X63190000Y-79655000I0J155000D01*
G01*
X63190000Y-79230000D01*
G75*
G02*
X63345000Y-79075000I155000J0D01*
G01*
G37*
%TD*%
%TO.C,C11*%
G36*
G01*
X68425000Y-76332500D02*
X68735000Y-76332500D01*
G75*
G02*
X68890000Y-76487500I0J-155000D01*
G01*
X68890000Y-76912500D01*
G75*
G02*
X68735000Y-77067500I-155000J0D01*
G01*
X68425000Y-77067500D01*
G75*
G02*
X68270000Y-76912500I0J155000D01*
G01*
X68270000Y-76487500D01*
G75*
G02*
X68425000Y-76332500I155000J0D01*
G01*
G37*
G36*
G01*
X68425000Y-75197500D02*
X68735000Y-75197500D01*
G75*
G02*
X68890000Y-75352500I0J-155000D01*
G01*
X68890000Y-75777500D01*
G75*
G02*
X68735000Y-75932500I-155000J0D01*
G01*
X68425000Y-75932500D01*
G75*
G02*
X68270000Y-75777500I0J155000D01*
G01*
X68270000Y-75352500D01*
G75*
G02*
X68425000Y-75197500I155000J0D01*
G01*
G37*
%TD*%
%TO.C,C10*%
G36*
G01*
X112240000Y-73927500D02*
X112550000Y-73927500D01*
G75*
G02*
X112705000Y-74082500I0J-155000D01*
G01*
X112705000Y-74507500D01*
G75*
G02*
X112550000Y-74662500I-155000J0D01*
G01*
X112240000Y-74662500D01*
G75*
G02*
X112085000Y-74507500I0J155000D01*
G01*
X112085000Y-74082500D01*
G75*
G02*
X112240000Y-73927500I155000J0D01*
G01*
G37*
G36*
G01*
X112240000Y-72792500D02*
X112550000Y-72792500D01*
G75*
G02*
X112705000Y-72947500I0J-155000D01*
G01*
X112705000Y-73372500D01*
G75*
G02*
X112550000Y-73527500I-155000J0D01*
G01*
X112240000Y-73527500D01*
G75*
G02*
X112085000Y-73372500I0J155000D01*
G01*
X112085000Y-72947500D01*
G75*
G02*
X112240000Y-72792500I155000J0D01*
G01*
G37*
%TD*%
%TO.C,C9*%
G36*
G01*
X107160000Y-77102500D02*
X107470000Y-77102500D01*
G75*
G02*
X107625000Y-77257500I0J-155000D01*
G01*
X107625000Y-77682500D01*
G75*
G02*
X107470000Y-77837500I-155000J0D01*
G01*
X107160000Y-77837500D01*
G75*
G02*
X107005000Y-77682500I0J155000D01*
G01*
X107005000Y-77257500D01*
G75*
G02*
X107160000Y-77102500I155000J0D01*
G01*
G37*
G36*
G01*
X107160000Y-75967500D02*
X107470000Y-75967500D01*
G75*
G02*
X107625000Y-76122500I0J-155000D01*
G01*
X107625000Y-76547500D01*
G75*
G02*
X107470000Y-76702500I-155000J0D01*
G01*
X107160000Y-76702500D01*
G75*
G02*
X107005000Y-76547500I0J155000D01*
G01*
X107005000Y-76122500D01*
G75*
G02*
X107160000Y-75967500I155000J0D01*
G01*
G37*
%TD*%
%TO.C,C8*%
G36*
G01*
X109087500Y-83665000D02*
X109087500Y-83975000D01*
G75*
G02*
X108932500Y-84130000I-155000J0D01*
G01*
X108507500Y-84130000D01*
G75*
G02*
X108352500Y-83975000I0J155000D01*
G01*
X108352500Y-83665000D01*
G75*
G02*
X108507500Y-83510000I155000J0D01*
G01*
X108932500Y-83510000D01*
G75*
G02*
X109087500Y-83665000I0J-155000D01*
G01*
G37*
G36*
G01*
X110222500Y-83665000D02*
X110222500Y-83975000D01*
G75*
G02*
X110067500Y-84130000I-155000J0D01*
G01*
X109642500Y-84130000D01*
G75*
G02*
X109487500Y-83975000I0J155000D01*
G01*
X109487500Y-83665000D01*
G75*
G02*
X109642500Y-83510000I155000J0D01*
G01*
X110067500Y-83510000D01*
G75*
G02*
X110222500Y-83665000I0J-155000D01*
G01*
G37*
%TD*%
%TO.C,C7*%
G36*
G01*
X112897500Y-88745000D02*
X112897500Y-89055000D01*
G75*
G02*
X112742500Y-89210000I-155000J0D01*
G01*
X112317500Y-89210000D01*
G75*
G02*
X112162500Y-89055000I0J155000D01*
G01*
X112162500Y-88745000D01*
G75*
G02*
X112317500Y-88590000I155000J0D01*
G01*
X112742500Y-88590000D01*
G75*
G02*
X112897500Y-88745000I0J-155000D01*
G01*
G37*
G36*
G01*
X114032500Y-88745000D02*
X114032500Y-89055000D01*
G75*
G02*
X113877500Y-89210000I-155000J0D01*
G01*
X113452500Y-89210000D01*
G75*
G02*
X113297500Y-89055000I0J155000D01*
G01*
X113297500Y-88745000D01*
G75*
G02*
X113452500Y-88590000I155000J0D01*
G01*
X113877500Y-88590000D01*
G75*
G02*
X114032500Y-88745000I0J-155000D01*
G01*
G37*
%TD*%
%TO.C,C6*%
G36*
G01*
X114667500Y-107795000D02*
X114667500Y-108105000D01*
G75*
G02*
X114512500Y-108260000I-155000J0D01*
G01*
X114087500Y-108260000D01*
G75*
G02*
X113932500Y-108105000I0J155000D01*
G01*
X113932500Y-107795000D01*
G75*
G02*
X114087500Y-107640000I155000J0D01*
G01*
X114512500Y-107640000D01*
G75*
G02*
X114667500Y-107795000I0J-155000D01*
G01*
G37*
G36*
G01*
X115802500Y-107795000D02*
X115802500Y-108105000D01*
G75*
G02*
X115647500Y-108260000I-155000J0D01*
G01*
X115222500Y-108260000D01*
G75*
G02*
X115067500Y-108105000I0J155000D01*
G01*
X115067500Y-107795000D01*
G75*
G02*
X115222500Y-107640000I155000J0D01*
G01*
X115647500Y-107640000D01*
G75*
G02*
X115802500Y-107795000I0J-155000D01*
G01*
G37*
%TD*%
%TO.C,C5*%
G36*
G01*
X110290000Y-103350000D02*
X110290000Y-103660000D01*
G75*
G02*
X110135000Y-103815000I-155000J0D01*
G01*
X109710000Y-103815000D01*
G75*
G02*
X109555000Y-103660000I0J155000D01*
G01*
X109555000Y-103350000D01*
G75*
G02*
X109710000Y-103195000I155000J0D01*
G01*
X110135000Y-103195000D01*
G75*
G02*
X110290000Y-103350000I0J-155000D01*
G01*
G37*
G36*
G01*
X111425000Y-103350000D02*
X111425000Y-103660000D01*
G75*
G02*
X111270000Y-103815000I-155000J0D01*
G01*
X110845000Y-103815000D01*
G75*
G02*
X110690000Y-103660000I0J155000D01*
G01*
X110690000Y-103350000D01*
G75*
G02*
X110845000Y-103195000I155000J0D01*
G01*
X111270000Y-103195000D01*
G75*
G02*
X111425000Y-103350000I0J-155000D01*
G01*
G37*
%TD*%
%TO.C,C4*%
G36*
G01*
X103025000Y-103940000D02*
X102715000Y-103940000D01*
G75*
G02*
X102560000Y-103785000I0J155000D01*
G01*
X102560000Y-103360000D01*
G75*
G02*
X102715000Y-103205000I155000J0D01*
G01*
X103025000Y-103205000D01*
G75*
G02*
X103180000Y-103360000I0J-155000D01*
G01*
X103180000Y-103785000D01*
G75*
G02*
X103025000Y-103940000I-155000J0D01*
G01*
G37*
G36*
G01*
X103025000Y-105075000D02*
X102715000Y-105075000D01*
G75*
G02*
X102560000Y-104920000I0J155000D01*
G01*
X102560000Y-104495000D01*
G75*
G02*
X102715000Y-104340000I155000J0D01*
G01*
X103025000Y-104340000D01*
G75*
G02*
X103180000Y-104495000I0J-155000D01*
G01*
X103180000Y-104920000D01*
G75*
G02*
X103025000Y-105075000I-155000J0D01*
G01*
G37*
%TD*%
%TO.C,C3*%
G36*
G01*
X96675000Y-105912500D02*
X96365000Y-105912500D01*
G75*
G02*
X96210000Y-105757500I0J155000D01*
G01*
X96210000Y-105332500D01*
G75*
G02*
X96365000Y-105177500I155000J0D01*
G01*
X96675000Y-105177500D01*
G75*
G02*
X96830000Y-105332500I0J-155000D01*
G01*
X96830000Y-105757500D01*
G75*
G02*
X96675000Y-105912500I-155000J0D01*
G01*
G37*
G36*
G01*
X96675000Y-107047500D02*
X96365000Y-107047500D01*
G75*
G02*
X96210000Y-106892500I0J155000D01*
G01*
X96210000Y-106467500D01*
G75*
G02*
X96365000Y-106312500I155000J0D01*
G01*
X96675000Y-106312500D01*
G75*
G02*
X96830000Y-106467500I0J-155000D01*
G01*
X96830000Y-106892500D01*
G75*
G02*
X96675000Y-107047500I-155000J0D01*
G01*
G37*
%TD*%
%TO.C,C2*%
G36*
G01*
X76990000Y-106480000D02*
X76680000Y-106480000D01*
G75*
G02*
X76525000Y-106325000I0J155000D01*
G01*
X76525000Y-105900000D01*
G75*
G02*
X76680000Y-105745000I155000J0D01*
G01*
X76990000Y-105745000D01*
G75*
G02*
X77145000Y-105900000I0J-155000D01*
G01*
X77145000Y-106325000D01*
G75*
G02*
X76990000Y-106480000I-155000J0D01*
G01*
G37*
G36*
G01*
X76990000Y-107615000D02*
X76680000Y-107615000D01*
G75*
G02*
X76525000Y-107460000I0J155000D01*
G01*
X76525000Y-107035000D01*
G75*
G02*
X76680000Y-106880000I155000J0D01*
G01*
X76990000Y-106880000D01*
G75*
G02*
X77145000Y-107035000I0J-155000D01*
G01*
X77145000Y-107460000D01*
G75*
G02*
X76990000Y-107615000I-155000J0D01*
G01*
G37*
%TD*%
%TO.C,C1*%
G36*
G01*
X83340000Y-102991500D02*
X83030000Y-102991500D01*
G75*
G02*
X82875000Y-102836500I0J155000D01*
G01*
X82875000Y-102411500D01*
G75*
G02*
X83030000Y-102256500I155000J0D01*
G01*
X83340000Y-102256500D01*
G75*
G02*
X83495000Y-102411500I0J-155000D01*
G01*
X83495000Y-102836500D01*
G75*
G02*
X83340000Y-102991500I-155000J0D01*
G01*
G37*
G36*
G01*
X83340000Y-104126500D02*
X83030000Y-104126500D01*
G75*
G02*
X82875000Y-103971500I0J155000D01*
G01*
X82875000Y-103546500D01*
G75*
G02*
X83030000Y-103391500I155000J0D01*
G01*
X83340000Y-103391500D01*
G75*
G02*
X83495000Y-103546500I0J-155000D01*
G01*
X83495000Y-103971500D01*
G75*
G02*
X83340000Y-104126500I-155000J0D01*
G01*
G37*
%TD*%
D12*
%TO.C,A1*%
X104140000Y-67945000D03*
X106680000Y-67945000D03*
X67060000Y-67945000D03*
X106680000Y-116205000D03*
X69600000Y-67945000D03*
X104140000Y-116205000D03*
X72140000Y-67945000D03*
X101600000Y-116205000D03*
X74680000Y-67945000D03*
X99060000Y-116205000D03*
X77220000Y-67945000D03*
X96520000Y-116205000D03*
X79760000Y-67945000D03*
X93980000Y-116205000D03*
X82300000Y-67945000D03*
X88900000Y-116205000D03*
X84840000Y-67945000D03*
X86360000Y-116205000D03*
X88900000Y-67945000D03*
X83820000Y-116205000D03*
X91440000Y-67945000D03*
X81280000Y-116205000D03*
X93980000Y-67945000D03*
X78740000Y-116205000D03*
X96520000Y-67945000D03*
X76200000Y-116205000D03*
X99060000Y-67945000D03*
X73660000Y-116205000D03*
X101600000Y-67945000D03*
D13*
X71120000Y-116205000D03*
D12*
X64520000Y-67945000D03*
X61980000Y-67945000D03*
%TD*%
D14*
%TO.C,J1*%
X67716400Y-135509000D03*
D15*
X72796400Y-135509000D03*
%TD*%
D14*
%TO.C,J2*%
X89535000Y-135255000D03*
D15*
X94615000Y-135255000D03*
%TD*%
D14*
%TO.C,J3*%
X140970000Y-120015000D03*
D15*
X140970000Y-114935000D03*
%TD*%
D14*
%TO.C,J4*%
X140970000Y-97155000D03*
D15*
X140970000Y-92075000D03*
%TD*%
D14*
%TO.C,J5*%
X104775000Y-46990000D03*
D15*
X99695000Y-46990000D03*
%TD*%
D14*
%TO.C,J6*%
X82550000Y-46990000D03*
D15*
X77470000Y-46990000D03*
%TD*%
D16*
%TO.C,J7*%
X68148200Y-51435000D03*
D17*
X62348200Y-51435000D03*
D18*
X65148200Y-56235000D03*
%TD*%
D19*
%TO.C,Q1*%
X73025000Y-122555000D03*
X75565000Y-122555000D03*
D20*
X78105000Y-122555000D03*
%TD*%
D19*
%TO.C,Q2*%
X62230000Y-122555000D03*
X64770000Y-122555000D03*
D20*
X67310000Y-122555000D03*
%TD*%
D19*
%TO.C,Q3*%
X95885000Y-122428000D03*
X98425000Y-122428000D03*
D20*
X100965000Y-122428000D03*
%TD*%
D19*
%TO.C,Q4*%
X83947000Y-122555000D03*
X86487000Y-122555000D03*
D20*
X89027000Y-122555000D03*
%TD*%
D21*
%TO.C,Q5*%
X125730000Y-113030000D03*
X125730000Y-110490000D03*
D22*
X125730000Y-107950000D03*
%TD*%
D21*
%TO.C,Q6*%
X125730000Y-123825000D03*
X125730000Y-121285000D03*
D22*
X125730000Y-118745000D03*
%TD*%
D21*
%TO.C,Q7*%
X125603000Y-91059000D03*
X125603000Y-88519000D03*
D22*
X125603000Y-85979000D03*
%TD*%
D21*
%TO.C,Q8*%
X125730000Y-101981000D03*
X125730000Y-99441000D03*
D22*
X125730000Y-96901000D03*
%TD*%
D19*
%TO.C,Q9*%
X98425000Y-62230000D03*
X95885000Y-62230000D03*
D20*
X93345000Y-62230000D03*
%TD*%
D19*
%TO.C,Q10*%
X109220000Y-62230000D03*
X106680000Y-62230000D03*
D20*
X104140000Y-62230000D03*
%TD*%
D19*
%TO.C,Q11*%
X76835000Y-62230000D03*
X74295000Y-62230000D03*
D20*
X71755000Y-62230000D03*
%TD*%
D19*
%TO.C,Q12*%
X87630000Y-62230000D03*
X85090000Y-62230000D03*
D20*
X82550000Y-62230000D03*
%TD*%
D23*
%TO.C,U1*%
X100330000Y-79375000D03*
X85090000Y-71755000D03*
X97790000Y-79375000D03*
X87630000Y-71755000D03*
X95250000Y-79375000D03*
X90170000Y-71755000D03*
X92710000Y-79375000D03*
X92710000Y-71755000D03*
X90170000Y-79375000D03*
X95250000Y-71755000D03*
X87630000Y-79375000D03*
X97790000Y-71755000D03*
X85090000Y-79375000D03*
D24*
X100330000Y-71755000D03*
%TD*%
D25*
%TO.C,U2*%
X74295000Y-104140000D03*
X66675000Y-111760000D03*
X74295000Y-106680000D03*
X66675000Y-109220000D03*
X74295000Y-109220000D03*
X66675000Y-106680000D03*
X74295000Y-111760000D03*
D26*
X66675000Y-104140000D03*
%TD*%
D27*
%TO.C,U3*%
X114300000Y-130683000D03*
X114300000Y-133223000D03*
X114300000Y-135763000D03*
D14*
X80772000Y-130683000D03*
X80772000Y-135763000D03*
%TD*%
D25*
%TO.C,U4*%
X93980000Y-103505000D03*
X86360000Y-111125000D03*
X93980000Y-106045000D03*
X86360000Y-108585000D03*
X93980000Y-108585000D03*
X86360000Y-106045000D03*
X93980000Y-111125000D03*
D26*
X86360000Y-103505000D03*
%TD*%
D23*
%TO.C,U5*%
X111760000Y-110490000D03*
X119380000Y-118110000D03*
X114300000Y-110490000D03*
X116840000Y-118110000D03*
X116840000Y-110490000D03*
X114300000Y-118110000D03*
X119380000Y-110490000D03*
D24*
X111760000Y-118110000D03*
%TD*%
D27*
%TO.C,U6*%
X135128000Y-71755000D03*
X137668000Y-71755000D03*
X140208000Y-71755000D03*
D14*
X135128000Y-105283000D03*
X140208000Y-105283000D03*
%TD*%
D23*
%TO.C,U7*%
X110490000Y-91440000D03*
X118110000Y-99060000D03*
X113030000Y-91440000D03*
X115570000Y-99060000D03*
X115570000Y-91440000D03*
X113030000Y-99060000D03*
X118110000Y-91440000D03*
D24*
X110490000Y-99060000D03*
%TD*%
D25*
%TO.C,U8*%
X114935000Y-77470000D03*
X122555000Y-69850000D03*
X114935000Y-74930000D03*
X122555000Y-72390000D03*
X114935000Y-72390000D03*
X122555000Y-74930000D03*
X114935000Y-69850000D03*
D26*
X122555000Y-77470000D03*
%TD*%
D27*
%TO.C,U9*%
X122555000Y-47498000D03*
X122555000Y-50038000D03*
X122555000Y-52578000D03*
D14*
X89027000Y-47498000D03*
X89027000Y-52578000D03*
%TD*%
D25*
%TO.C,U10*%
X71120000Y-78740000D03*
X78740000Y-71120000D03*
X71120000Y-76200000D03*
X78740000Y-73660000D03*
X71120000Y-73660000D03*
X78740000Y-76200000D03*
X71120000Y-71120000D03*
D26*
X78740000Y-78740000D03*
%TD*%
D23*
%TO.C,U11*%
X79375000Y-97790000D03*
X64135000Y-90170000D03*
X76835000Y-97790000D03*
X66675000Y-90170000D03*
X74295000Y-97790000D03*
X69215000Y-90170000D03*
X71755000Y-97790000D03*
X71755000Y-90170000D03*
X69215000Y-97790000D03*
X74295000Y-90170000D03*
X66675000Y-97790000D03*
X76835000Y-90170000D03*
X64135000Y-97790000D03*
D24*
X79375000Y-90170000D03*
%TD*%
D23*
%TO.C,U12*%
X85725000Y-90170000D03*
X100965000Y-97790000D03*
X88265000Y-90170000D03*
X98425000Y-97790000D03*
X90805000Y-90170000D03*
X95885000Y-97790000D03*
X93345000Y-90170000D03*
X93345000Y-97790000D03*
X95885000Y-90170000D03*
X90805000Y-97790000D03*
X98425000Y-90170000D03*
X88265000Y-97790000D03*
X100965000Y-90170000D03*
D24*
X85725000Y-97790000D03*
%TD*%
M02*
