%TF.GenerationSoftware,KiCad,Pcbnew,(5.1.9)-1*%
%TF.CreationDate,2022-08-01T09:46:19-03:00*%
%TF.ProjectId,PonteH,506f6e74-6548-42e6-9b69-6361645f7063,rev?*%
%TF.SameCoordinates,Original*%
%TF.FileFunction,Legend,Bot*%
%TF.FilePolarity,Positive*%
%FSLAX46Y46*%
G04 Gerber Fmt 4.6, Leading zero omitted, Abs format (unit mm)*
G04 Created by KiCad (PCBNEW (5.1.9)-1) date 2022-08-01 09:46:19*
%MOMM*%
%LPD*%
G01*
G04 APERTURE LIST*
%ADD10C,0.120000*%
%ADD11C,0.150000*%
G04 APERTURE END LIST*
D10*
%TO.C,R19*%
X76667379Y-93090000D02*
X77002621Y-93090000D01*
X76667379Y-92330000D02*
X77002621Y-92330000D01*
%TO.C,C14*%
X65656535Y-51795000D02*
X65424865Y-51795000D01*
X65656535Y-51075000D02*
X65424865Y-51075000D01*
%TO.C,C13*%
X79191665Y-92350000D02*
X79423335Y-92350000D01*
X79191665Y-93070000D02*
X79423335Y-93070000D01*
%TO.C,A1*%
X109350000Y-78355000D02*
X111890000Y-80895000D01*
X109350000Y-66925000D02*
X109350000Y-78355000D01*
X107700000Y-65275000D02*
X109350000Y-66925000D01*
X43050000Y-65275000D02*
X107700000Y-65275000D01*
X43050000Y-74805000D02*
X43050000Y-65275000D01*
X36700000Y-74805000D02*
X43050000Y-74805000D01*
X36700000Y-86485000D02*
X36700000Y-74805000D01*
X43050000Y-86485000D02*
X36700000Y-86485000D01*
X43050000Y-106555000D02*
X43050000Y-86485000D01*
X41150000Y-106555000D02*
X43050000Y-106555000D01*
X41150000Y-115695000D02*
X41150000Y-106555000D01*
X43050000Y-115695000D02*
X41150000Y-115695000D01*
X43050000Y-118875000D02*
X43050000Y-115695000D01*
X109350000Y-118875000D02*
X43050000Y-118875000D01*
X109350000Y-116205000D02*
X109350000Y-118875000D01*
X111890000Y-113665000D02*
X109350000Y-116205000D01*
X111890000Y-80895000D02*
X111890000Y-113665000D01*
%TO.C,U3*%
X82550000Y-126111000D02*
X82550000Y-140335000D01*
X112572800Y-126111000D02*
X82550000Y-126111000D01*
X112572800Y-140335000D02*
X112572800Y-126111000D01*
X82550000Y-140335000D02*
X112572800Y-140335000D01*
%TO.C,U6*%
X130556000Y-103505000D02*
X144780000Y-103505000D01*
X130556000Y-73482200D02*
X130556000Y-103505000D01*
X144780000Y-73482200D02*
X130556000Y-73482200D01*
X144780000Y-103505000D02*
X144780000Y-73482200D01*
%TO.C,U9*%
X90805000Y-42926000D02*
X90805000Y-57150000D01*
X120827800Y-42926000D02*
X90805000Y-42926000D01*
X120827800Y-57150000D02*
X120827800Y-42926000D01*
X90805000Y-57150000D02*
X120827800Y-57150000D01*
%TO.C,R19*%
D11*
X76842857Y-94432380D02*
X77176190Y-93956190D01*
X77414285Y-94432380D02*
X77414285Y-93432380D01*
X77033333Y-93432380D01*
X76938095Y-93480000D01*
X76890476Y-93527619D01*
X76842857Y-93622857D01*
X76842857Y-93765714D01*
X76890476Y-93860952D01*
X76938095Y-93908571D01*
X77033333Y-93956190D01*
X77414285Y-93956190D01*
X75890476Y-94432380D02*
X76461904Y-94432380D01*
X76176190Y-94432380D02*
X76176190Y-93432380D01*
X76271428Y-93575238D01*
X76366666Y-93670476D01*
X76461904Y-93718095D01*
X75414285Y-94432380D02*
X75223809Y-94432380D01*
X75128571Y-94384761D01*
X75080952Y-94337142D01*
X74985714Y-94194285D01*
X74938095Y-94003809D01*
X74938095Y-93622857D01*
X74985714Y-93527619D01*
X75033333Y-93480000D01*
X75128571Y-93432380D01*
X75319047Y-93432380D01*
X75414285Y-93480000D01*
X75461904Y-93527619D01*
X75509523Y-93622857D01*
X75509523Y-93860952D01*
X75461904Y-93956190D01*
X75414285Y-94003809D01*
X75319047Y-94051428D01*
X75128571Y-94051428D01*
X75033333Y-94003809D01*
X74985714Y-93956190D01*
X74938095Y-93860952D01*
%TO.C,C14*%
X66183557Y-53062142D02*
X66231176Y-53109761D01*
X66374033Y-53157380D01*
X66469271Y-53157380D01*
X66612128Y-53109761D01*
X66707366Y-53014523D01*
X66754985Y-52919285D01*
X66802604Y-52728809D01*
X66802604Y-52585952D01*
X66754985Y-52395476D01*
X66707366Y-52300238D01*
X66612128Y-52205000D01*
X66469271Y-52157380D01*
X66374033Y-52157380D01*
X66231176Y-52205000D01*
X66183557Y-52252619D01*
X65231176Y-53157380D02*
X65802604Y-53157380D01*
X65516890Y-53157380D02*
X65516890Y-52157380D01*
X65612128Y-52300238D01*
X65707366Y-52395476D01*
X65802604Y-52443095D01*
X64374033Y-52490714D02*
X64374033Y-53157380D01*
X64612128Y-52109761D02*
X64850223Y-52824047D01*
X64231176Y-52824047D01*
%TO.C,C13*%
X79882857Y-94337142D02*
X79930476Y-94384761D01*
X80073333Y-94432380D01*
X80168571Y-94432380D01*
X80311428Y-94384761D01*
X80406666Y-94289523D01*
X80454285Y-94194285D01*
X80501904Y-94003809D01*
X80501904Y-93860952D01*
X80454285Y-93670476D01*
X80406666Y-93575238D01*
X80311428Y-93480000D01*
X80168571Y-93432380D01*
X80073333Y-93432380D01*
X79930476Y-93480000D01*
X79882857Y-93527619D01*
X78930476Y-94432380D02*
X79501904Y-94432380D01*
X79216190Y-94432380D02*
X79216190Y-93432380D01*
X79311428Y-93575238D01*
X79406666Y-93670476D01*
X79501904Y-93718095D01*
X78597142Y-93432380D02*
X77978095Y-93432380D01*
X78311428Y-93813333D01*
X78168571Y-93813333D01*
X78073333Y-93860952D01*
X78025714Y-93908571D01*
X77978095Y-94003809D01*
X77978095Y-94241904D01*
X78025714Y-94337142D01*
X78073333Y-94384761D01*
X78168571Y-94432380D01*
X78454285Y-94432380D01*
X78549523Y-94384761D01*
X78597142Y-94337142D01*
%TO.C,A1*%
X73104285Y-120181666D02*
X72628095Y-120181666D01*
X73199523Y-120467380D02*
X72866190Y-119467380D01*
X72532857Y-120467380D01*
X71675714Y-120467380D02*
X72247142Y-120467380D01*
X71961428Y-120467380D02*
X71961428Y-119467380D01*
X72056666Y-119610238D01*
X72151904Y-119705476D01*
X72247142Y-119753095D01*
%TO.C,U3*%
X80351380Y-139573095D02*
X81160904Y-139573095D01*
X81256142Y-139620714D01*
X81303761Y-139668333D01*
X81351380Y-139763571D01*
X81351380Y-139954047D01*
X81303761Y-140049285D01*
X81256142Y-140096904D01*
X81160904Y-140144523D01*
X80351380Y-140144523D01*
X80351380Y-140525476D02*
X80351380Y-141144523D01*
X80732333Y-140811190D01*
X80732333Y-140954047D01*
X80779952Y-141049285D01*
X80827571Y-141096904D01*
X80922809Y-141144523D01*
X81160904Y-141144523D01*
X81256142Y-141096904D01*
X81303761Y-141049285D01*
X81351380Y-140954047D01*
X81351380Y-140668333D01*
X81303761Y-140573095D01*
X81256142Y-140525476D01*
%TO.C,U6*%
X145541904Y-104608380D02*
X145541904Y-105417904D01*
X145494285Y-105513142D01*
X145446666Y-105560761D01*
X145351428Y-105608380D01*
X145160952Y-105608380D01*
X145065714Y-105560761D01*
X145018095Y-105513142D01*
X144970476Y-105417904D01*
X144970476Y-104608380D01*
X144065714Y-104608380D02*
X144256190Y-104608380D01*
X144351428Y-104656000D01*
X144399047Y-104703619D01*
X144494285Y-104846476D01*
X144541904Y-105036952D01*
X144541904Y-105417904D01*
X144494285Y-105513142D01*
X144446666Y-105560761D01*
X144351428Y-105608380D01*
X144160952Y-105608380D01*
X144065714Y-105560761D01*
X144018095Y-105513142D01*
X143970476Y-105417904D01*
X143970476Y-105179809D01*
X144018095Y-105084571D01*
X144065714Y-105036952D01*
X144160952Y-104989333D01*
X144351428Y-104989333D01*
X144446666Y-105036952D01*
X144494285Y-105084571D01*
X144541904Y-105179809D01*
%TO.C,U9*%
X90082619Y-44576904D02*
X89273095Y-44576904D01*
X89177857Y-44529285D01*
X89130238Y-44481666D01*
X89082619Y-44386428D01*
X89082619Y-44195952D01*
X89130238Y-44100714D01*
X89177857Y-44053095D01*
X89273095Y-44005476D01*
X90082619Y-44005476D01*
X89082619Y-43481666D02*
X89082619Y-43291190D01*
X89130238Y-43195952D01*
X89177857Y-43148333D01*
X89320714Y-43053095D01*
X89511190Y-43005476D01*
X89892142Y-43005476D01*
X89987380Y-43053095D01*
X90035000Y-43100714D01*
X90082619Y-43195952D01*
X90082619Y-43386428D01*
X90035000Y-43481666D01*
X89987380Y-43529285D01*
X89892142Y-43576904D01*
X89654047Y-43576904D01*
X89558809Y-43529285D01*
X89511190Y-43481666D01*
X89463571Y-43386428D01*
X89463571Y-43195952D01*
X89511190Y-43100714D01*
X89558809Y-43053095D01*
X89654047Y-43005476D01*
%TD*%
M02*
