M48
; DRILL file {KiCad (5.1.9)-1} date 08/01/22 09:45:50
; FORMAT={-:-/ absolute / inch / decimal}
; #@! TF.CreationDate,2022-08-01T09:45:50-03:00
; #@! TF.GenerationSoftware,Kicad,Pcbnew,(5.1.9)-1
; #@! TF.FileFunction,Plated,1,2,PTH
FMAT,2
INCH
T1C0.0276
T2C0.0315
T3C0.0394
T4C0.0433
T5C0.0591
T6C0.0598
%
G90
G05
T1
X2.635Y-3.33
X2.665Y-3.385
X2.685Y-3.945
X2.725Y-4.03
X2.865Y-4.66
X2.98Y-2.795
X3.135Y-3.7
X3.3Y-4.45
X3.76Y-4.655
X3.835Y-3.03
X3.905Y-4.4
X3.93Y-2.995
X3.995Y-3.725
X4.01Y-3.38
X4.075Y-3.195
X4.11Y-3.44
X4.115Y-3.15
X4.14Y-3.395
X4.165Y-4.39
X4.175Y-4.44
X4.185Y-3.73
X4.19Y-4.335
X4.23Y-3.875
X4.27Y-3.99
X4.32Y-4.41
X4.325Y-2.535
X4.335Y-3.74
X4.39Y-3.125
X4.405Y-2.655
X4.56Y-3.77
X4.585Y-3.48
X4.71Y-3.345
X4.7968Y-4.5526
X4.8Y-3.275
X4.82Y-4.39
X4.84Y-4.305
X4.86Y-4.52
T2
X2.525Y-3.55
X2.525Y-3.85
X2.625Y-3.55
X2.625Y-3.85
X2.625Y-4.1
X2.625Y-4.2
X2.625Y-4.3
X2.625Y-4.4
X2.725Y-3.55
X2.725Y-3.85
X2.8Y-2.8
X2.8Y-2.9
X2.8Y-3.0
X2.8Y-3.1
X2.825Y-3.55
X2.825Y-3.85
X2.925Y-3.55
X2.925Y-3.85
X2.925Y-4.1
X2.925Y-4.2
X2.925Y-4.3
X2.925Y-4.4
X3.025Y-3.55
X3.025Y-3.85
X3.1Y-2.8
X3.1Y-2.9
X3.1Y-3.0
X3.1Y-3.1
X3.125Y-3.55
X3.125Y-3.85
X3.35Y-2.825
X3.35Y-3.125
X3.375Y-3.55
X3.375Y-3.85
X3.4Y-4.075
X3.4Y-4.175
X3.4Y-4.275
X3.4Y-4.375
X3.45Y-2.825
X3.45Y-3.125
X3.475Y-3.55
X3.475Y-3.85
X3.55Y-2.825
X3.55Y-3.125
X3.575Y-3.55
X3.575Y-3.85
X3.65Y-2.825
X3.65Y-3.125
X3.675Y-3.55
X3.675Y-3.85
X3.7Y-4.075
X3.7Y-4.175
X3.7Y-4.275
X3.7Y-4.375
X3.75Y-2.825
X3.75Y-3.125
X3.775Y-3.55
X3.775Y-3.85
X3.85Y-2.825
X3.85Y-3.125
X3.875Y-3.55
X3.875Y-3.85
X3.95Y-2.825
X3.95Y-3.125
X3.975Y-3.55
X3.975Y-3.85
X4.35Y-3.6
X4.35Y-3.9
X4.4Y-4.35
X4.4Y-4.65
X4.45Y-3.6
X4.45Y-3.9
X4.5Y-4.35
X4.5Y-4.65
X4.525Y-2.75
X4.525Y-2.85
X4.525Y-2.95
X4.525Y-3.05
X4.55Y-3.6
X4.55Y-3.9
X4.6Y-4.35
X4.6Y-4.65
X4.65Y-3.6
X4.65Y-3.9
X4.7Y-4.35
X4.7Y-4.65
X4.825Y-2.75
X4.825Y-2.85
X4.825Y-2.95
X4.825Y-3.05
T3
X2.4402Y-2.675
X2.5402Y-2.675
X2.6402Y-2.675
X2.7402Y-2.675
X2.8Y-4.575
X2.8402Y-2.675
X2.9Y-4.575
X2.9402Y-2.675
X3.0Y-4.575
X3.0402Y-2.675
X3.1Y-4.575
X3.1402Y-2.675
X3.2Y-4.575
X3.2402Y-2.675
X3.3Y-4.575
X3.3402Y-2.675
X3.4Y-4.575
X3.5Y-2.675
X3.5Y-4.575
X3.6Y-2.675
X3.7Y-2.675
X3.7Y-4.575
X3.8Y-2.675
X3.8Y-4.575
X3.9Y-2.675
X3.9Y-4.575
X4.0Y-2.675
X4.0Y-4.575
X4.1Y-2.675
X4.1Y-4.575
X4.2Y-2.675
X4.2Y-4.575
T4
X2.45Y-4.825
X2.55Y-4.825
X2.65Y-4.825
X2.825Y-2.45
X2.875Y-4.825
X2.925Y-2.45
X2.975Y-4.825
X3.025Y-2.45
X3.075Y-4.825
X3.25Y-2.45
X3.305Y-4.825
X3.35Y-2.45
X3.405Y-4.825
X3.45Y-2.45
X3.505Y-4.825
X3.675Y-2.45
X3.775Y-2.45
X3.775Y-4.82
X3.875Y-2.45
X3.875Y-4.82
X3.975Y-4.82
X4.1Y-2.45
X4.2Y-2.45
X4.3Y-2.45
X4.5Y-5.145
X4.5Y-5.245
X4.5Y-5.345
X4.825Y-1.87
X4.825Y-1.97
X4.825Y-2.07
X4.945Y-3.385
X4.945Y-3.485
X4.945Y-3.585
X4.95Y-3.815
X4.95Y-3.915
X4.95Y-4.015
X4.95Y-4.25
X4.95Y-4.35
X4.95Y-4.45
X4.95Y-4.675
X4.95Y-4.775
X4.95Y-4.875
X5.32Y-2.825
X5.42Y-2.825
X5.52Y-2.825
T5
X3.18Y-5.145
X3.18Y-5.345
X3.505Y-1.87
X3.505Y-2.07
X5.32Y-4.145
X5.52Y-4.145
T6
X2.666Y-5.335
X2.866Y-5.335
X3.05Y-1.85
X3.25Y-1.85
X3.525Y-5.325
X3.725Y-5.325
X3.925Y-1.85
X4.125Y-1.85
X5.55Y-3.625
X5.55Y-3.825
X5.55Y-4.525
X5.55Y-4.725
T2
G00X2.4547Y-1.9817
M15
G01X2.4547Y-2.0683
M16
G05
G00X2.5216Y-2.214
M15
G01X2.6082Y-2.214
M16
G05
G00X2.683Y-1.9738
M15
G01X2.683Y-2.0762
M16
G05
T0
M30
