  0
SECTION
  2
HEADER
  9
$ANGBASE
  50
0.0
  9
$ANGDIR
  70
1
  9
$MEASUREMENT
  70
0
  0
ENDSEC
  0
SECTION
  2
TABLES
  0
TABLE
  2
LTYPE
  70
4
  0
LTYPE
  5
40F
  2
CONTINUOUS
  70
0
  3
Solid line
  72
65
  73
0
  40
0.0
  0
LTYPE
  5
410
  2
DASHDOT
 70
0
  3
Dash Dot ____ _ ____ _
 72
65
 73
4
 40
2.0
 49
1.25
 49
-0.25
 49
0.25
 49
-0.25
  0
LTYPE
  5
411
  2
DASHED
 70
0
  3
Dashed __ __ __ __ __
 72
65
 73
2
 40
0.75
 49
0.5
 49
-0.25
  0
LTYPE
  5
43B
  2
DOTTED
 70
0
  3
Dotted .  .  .  .
 72
65
 73
2
 40
0.2
 49
0.0
 49
-0.2
  0
ENDTAB
  0
TABLE
  2
STYLE
  70
4
  0
STYLE
  2
KICAD
  70
0
  40
0
  41
1
  42
1
  50
0
  71
0
  3
isocp.shx
  0
STYLE
  2
KICADB
  70
0
  40
0
  41
1
  42
1
  50
0
  71
0
  3
isocp.shx
  0
STYLE
  2
KICADI
  70
0
  40
0
  41
1
  42
1
  50
15
  71
0
  3
isocp.shx
  0
STYLE
  2
KICADBI
  70
0
  40
0
  41
1
  42
1
  50
15
  71
0
  3
isocp.shx
  0
ENDTAB
  0
TABLE
  2
LAYER
  70
1
  0
LAYER
  2
BLACK
  70
0
  62
7
  6
CONTINUOUS
  0
ENDTAB
  0
ENDSEC
  0
SECTION
  2
ENTITIES
0
LINE
8
BLACK
6
CONTINUOUS
10
5.77599
20
-5.6
11
5.77597
21
-5.60019
0
LINE
8
BLACK
6
CONTINUOUS
10
5.77597
20
-5.60019
11
5.77591
21
-5.60038
0
LINE
8
BLACK
6
CONTINUOUS
10
5.77591
20
-5.60038
11
5.77582
21
-5.60055
0
LINE
8
BLACK
6
CONTINUOUS
10
5.77582
20
-5.60055
11
5.7757
21
-5.6007
0
LINE
8
BLACK
6
CONTINUOUS
10
5.7757
20
-5.6007
11
5.77555
21
-5.60082
0
LINE
8
BLACK
6
CONTINUOUS
10
5.77555
20
-5.60082
11
5.77538
21
-5.60091
0
LINE
8
BLACK
6
CONTINUOUS
10
5.77538
20
-5.60091
11
5.77519
21
-5.60097
0
LINE
8
BLACK
6
CONTINUOUS
10
5.77519
20
-5.60097
11
5.77505
21
-5.60098
0
LINE
8
BLACK
6
CONTINUOUS
10
5.77505
20
-5.60098
11
5.77505
21
-5.60098
0
LINE
8
BLACK
6
CONTINUOUS
10
5.77505
20
-5.60098
11
5.775
21
-5.60099
0
LINE
8
BLACK
6
CONTINUOUS
10
5.775
20
-5.60099
11
5.77495
21
-5.60098
0
LINE
8
BLACK
6
CONTINUOUS
10
5.77495
20
-5.60098
11
2.32505
21
-5.60098
0
LINE
8
BLACK
6
CONTINUOUS
10
2.32505
20
-5.60098
11
2.325
21
-5.60099
0
LINE
8
BLACK
6
CONTINUOUS
10
2.325
20
-5.60099
11
2.32495
21
-5.60098
0
LINE
8
BLACK
6
CONTINUOUS
10
2.32495
20
-5.60098
11
2.32495
21
-5.60098
0
LINE
8
BLACK
6
CONTINUOUS
10
2.32495
20
-5.60098
11
2.32481
21
-5.60097
0
LINE
8
BLACK
6
CONTINUOUS
10
2.32481
20
-5.60097
11
2.32462
21
-5.60091
0
LINE
8
BLACK
6
CONTINUOUS
10
2.32462
20
-5.60091
11
2.32445
21
-5.60082
0
LINE
8
BLACK
6
CONTINUOUS
10
2.32445
20
-5.60082
11
2.3243
21
-5.6007
0
LINE
8
BLACK
6
CONTINUOUS
10
2.3243
20
-5.6007
11
2.32418
21
-5.60055
0
LINE
8
BLACK
6
CONTINUOUS
10
2.32418
20
-5.60055
11
2.32409
21
-5.60038
0
LINE
8
BLACK
6
CONTINUOUS
10
2.32409
20
-5.60038
11
2.32403
21
-5.60019
0
LINE
8
BLACK
6
CONTINUOUS
10
2.32403
20
-5.60019
11
2.32401
21
-5.6
0
LINE
8
BLACK
6
CONTINUOUS
10
2.32401
20
-5.6
11
2.32402
21
-5.59995
0
LINE
8
BLACK
6
CONTINUOUS
10
2.32402
20
-5.59995
11
2.32402
21
-1.62505
0
LINE
8
BLACK
6
CONTINUOUS
10
2.32402
20
-1.62505
11
2.32401
21
-1.625
0
LINE
8
BLACK
6
CONTINUOUS
10
2.32401
20
-1.625
11
2.32403
21
-1.62481
0
LINE
8
BLACK
6
CONTINUOUS
10
2.32403
20
-1.62481
11
2.32409
21
-1.62462
0
LINE
8
BLACK
6
CONTINUOUS
10
2.32409
20
-1.62462
11
2.32418
21
-1.62445
0
LINE
8
BLACK
6
CONTINUOUS
10
2.32418
20
-1.62445
11
2.3243
21
-1.6243
0
LINE
8
BLACK
6
CONTINUOUS
10
2.3243
20
-1.6243
11
2.32445
21
-1.62418
0
LINE
8
BLACK
6
CONTINUOUS
10
2.32445
20
-1.62418
11
2.32462
21
-1.62409
0
LINE
8
BLACK
6
CONTINUOUS
10
2.32462
20
-1.62409
11
2.32481
21
-1.62403
0
LINE
8
BLACK
6
CONTINUOUS
10
2.32481
20
-1.62403
11
2.32495
21
-1.62402
0
LINE
8
BLACK
6
CONTINUOUS
10
2.32495
20
-1.62402
11
2.325
21
-1.62401
0
LINE
8
BLACK
6
CONTINUOUS
10
2.325
20
-1.62401
11
2.32505
21
-1.62402
0
LINE
8
BLACK
6
CONTINUOUS
10
2.32505
20
-1.62402
11
5.77495
21
-1.62402
0
LINE
8
BLACK
6
CONTINUOUS
10
5.77495
20
-1.62402
11
5.775
21
-1.62401
0
LINE
8
BLACK
6
CONTINUOUS
10
5.775
20
-1.62401
11
5.77505
21
-1.62402
0
LINE
8
BLACK
6
CONTINUOUS
10
5.77505
20
-1.62402
11
5.77519
21
-1.62403
0
LINE
8
BLACK
6
CONTINUOUS
10
5.77519
20
-1.62403
11
5.77538
21
-1.62409
0
LINE
8
BLACK
6
CONTINUOUS
10
5.77538
20
-1.62409
11
5.77555
21
-1.62418
0
LINE
8
BLACK
6
CONTINUOUS
10
5.77555
20
-1.62418
11
5.7757
21
-1.6243
0
LINE
8
BLACK
6
CONTINUOUS
10
5.7757
20
-1.6243
11
5.77582
21
-1.62445
0
LINE
8
BLACK
6
CONTINUOUS
10
5.77582
20
-1.62445
11
5.77591
21
-1.62462
0
LINE
8
BLACK
6
CONTINUOUS
10
5.77591
20
-1.62462
11
5.77597
21
-1.62481
0
LINE
8
BLACK
6
CONTINUOUS
10
5.77597
20
-1.62481
11
5.77599
21
-1.625
0
LINE
8
BLACK
6
CONTINUOUS
10
5.77599
20
-1.625
11
5.77598
21
-1.62505
0
LINE
8
BLACK
6
CONTINUOUS
10
5.77598
20
-1.62505
11
5.77598
21
-5.59995
0
LINE
8
BLACK
6
CONTINUOUS
10
5.77598
20
-5.59995
11
5.77599
21
-5.6
0
LINE
8
BLACK
6
CONTINUOUS
10
2.32598
20
-1.62598
11
2.32598
21
-5.59902
0
LINE
8
BLACK
6
CONTINUOUS
10
2.32598
20
-5.59902
11
5.77402
21
-5.59902
0
LINE
8
BLACK
6
CONTINUOUS
10
5.77402
20
-5.59902
11
5.77402
21
-5.57505
0
LINE
8
BLACK
6
CONTINUOUS
10
5.77402
20
-5.57505
11
5.77402
21
-5.57505
0
LINE
8
BLACK
6
CONTINUOUS
10
5.77402
20
-5.57505
11
5.77402
21
-1.62598
0
LINE
8
BLACK
6
CONTINUOUS
10
5.77402
20
-1.62598
11
2.32598
21
-1.62598
  0
ENDSEC
  0
EOF
